<svg id="Capa_1" enable-background="new 0 0 512 512" height="512" viewBox="0 0 512 512" width="512" xmlns="http://www.w3.org/2000/svg"><g><path d="m191.606 131.607 15-15c14.12-14.12 14.12-37.094 0-51.213-2.422-2.422-2.422-6.364 0-8.787l15-15c5.858-5.858 5.858-15.355 0-21.213-5.857-5.858-15.355-5.858-21.213 0l-15 15c-14.12 14.12-14.12 37.094 0 51.213 2.422 2.422 2.422 6.364 0 8.787l-15 15c-5.858 5.858-5.858 15.355 0 21.213s15.357 5.857 21.213 0z"/><path d="m251.606 131.607 15-15c14.12-14.12 14.12-37.094 0-51.213-2.422-2.422-2.422-6.364 0-8.787l15-15c5.858-5.858 5.858-15.355 0-21.213-5.857-5.858-15.355-5.858-21.213 0l-15 15c-14.12 14.12-14.12 37.094 0 51.213 2.422 2.422 2.422 6.364 0 8.787l-15 15c-5.858 5.858-5.858 15.355 0 21.213s15.357 5.857 21.213 0z"/><path d="m290.394 110.393c-5.858 5.858-5.858 15.355 0 21.213s15.356 5.857 21.213 0l15-15c14.12-14.12 14.12-37.094 0-51.213-2.423-2.422-2.423-6.364 0-8.787l15-15c5.858-5.858 5.858-15.355 0-21.213-5.857-5.858-15.355-5.858-21.213 0l-15 15c-14.12 14.12-14.12 37.094 0 51.213 2.423 2.422 2.423 6.364 0 8.787z"/><path d="m390.099 286h30.901c33.084 0 60-26.916 60-60s-26.916-60-60-60c-12.789 0-263.757 0-285 0-8.284 0-15 6.716-15 15v90c0 75.155 59.975 105 135 105 67.152 0 126.008-23.866 134.099-90zm60.901-60c0 16.542-13.458 30-30 30h-30v-60h30c16.542 0 30 13.458 30 30z"/><path d="m497 466h-20.44c-7.35-19.32-7.35-40.68 0-60h20.44c8.28 0 15-6.72 15-15s-6.72-15-15-15h-437c-33.08 0-60 26.92-60 60s26.92 60 60 60h437c8.28 0 15-6.72 15-15s-6.72-15-15-15zm-151-15h-210c-8.28 0-15-6.72-15-15s6.72-15 15-15h210c8.28 0 15 6.72 15 15s-6.72 15-15 15z"/></g></svg>